<?xml version="1.0" standalone="no"?>
<!DOCTYPE svg PUBLIC "-//W3C//DTD SVG 20010904//EN"
 "http://www.w3.org/TR/2001/REC-SVG-20010904/DTD/svg10.dtd">
<svg version="1.0" xmlns="http://www.w3.org/2000/svg"
 width="567.000000pt" height="567.000000pt" viewBox="0 0 567.000000 567.000000"
 preserveAspectRatio="xMidYMid meet">
<metadata>
Created by potrace 1.11, written by Peter Selinger 2001-2013
</metadata>
<g transform="translate(0.000000,567.000000) scale(0.100000,-0.100000)"
fill="#000000" stroke="none">
<path d="M3650 3465 l0 -1665 -595 0 -595 0 0 -260 0 -260 1455 0 1455 0 0
260 0 260 -595 0 -595 0 0 1665 0 1665 -265 0 -265 0 0 -1665z"/>
<path d="M360 3980 l0 -260 595 0 595 0 0 -1665 0 -1665 265 0 265 0 0 1665 0
1665 595 0 595 0 0 260 0 260 -1455 0 -1455 0 0 -260z"/>
</g>
</svg>
